<svg xmlns="http://www.w3.org/2000/svg" xmlns:xlink="http://www.w3.org/1999/xlink" width="500" zoomAndPan="magnify" viewBox="0 0 375 374.999991" height="500" preserveAspectRatio="xMidYMid meet" version="1.0"><defs><g/><clipPath id="ca5856d625"><path d="M 37.5 118 L 132 118 L 132 229 L 37.5 229 Z M 37.5 118 " clip-rule="nonzero"/></clipPath><clipPath id="6b93f07c01"><path d="M 135.765625 113.242188 L 237.734375 113.242188 L 237.734375 251.804688 L 135.765625 251.804688 Z M 135.765625 113.242188 " clip-rule="nonzero"/></clipPath></defs><g clip-path="url(#ca5856d625)"><path fill="#211d1d" d="M 41.820312 166.339844 L 119.980469 119.292969 C 121.160156 118.636719 122.46875 118.308594 123.910156 118.308594 C 126.070312 118.308594 127.917969 119.078125 129.457031 120.621094 C 130.996094 122.164062 131.765625 124.015625 131.765625 126.183594 C 131.765625 129.003906 130.421875 131.300781 127.738281 133.070312 L 60.574219 173.425781 L 127.738281 213.777344 C 130.421875 215.546875 131.765625 217.84375 131.765625 220.667969 C 131.765625 222.832031 130.996094 224.683594 129.457031 226.226562 C 127.917969 227.769531 126.070312 228.539062 123.910156 228.539062 C 122.46875 228.539062 121.160156 228.210938 119.980469 227.558594 L 41.820312 180.511719 C 38.941406 178.671875 37.5 176.308594 37.5 173.425781 C 37.5 170.535156 38.941406 168.175781 41.820312 166.339844 " fill-opacity="1" fill-rule="nonzero"/></g><path fill="#211d1d" d="M 336 173.425781 C 336 176.308594 334.558594 178.671875 331.679688 180.511719 L 253.519531 227.558594 C 252.339844 228.210938 251.03125 228.539062 249.59375 228.539062 C 247.429688 228.539062 245.582031 227.769531 244.042969 226.226562 C 242.503906 224.683594 241.738281 222.832031 241.738281 220.667969 C 241.738281 217.84375 243.078125 215.546875 245.761719 213.777344 L 312.925781 173.425781 L 245.761719 133.070312 C 243.078125 131.300781 241.738281 129.003906 241.738281 126.183594 C 241.738281 124.015625 242.503906 122.164062 244.042969 120.621094 C 245.582031 119.078125 247.429688 118.308594 249.59375 118.308594 C 251.03125 118.308594 252.339844 118.636719 253.519531 119.292969 L 331.679688 166.339844 C 334.558594 168.175781 336 170.535156 336 173.425781 " fill-opacity="1" fill-rule="nonzero"/><g clip-path="url(#6b93f07c01)"><path fill="#8c52ff" d="M 225.1875 169.996094 C 216.261719 185.507812 196.480469 190.824219 181.003906 181.863281 C 165.527344 172.90625 160.226562 153.078125 169.160156 137.566406 C 178.101562 122.0625 197.882812 116.746094 213.347656 125.695312 C 228.824219 134.65625 234.125 154.484375 225.1875 169.996094 Z M 217.390625 118.675781 C 217.378906 118.667969 217.367188 118.671875 217.351562 118.652344 C 198.019531 107.492188 173.316406 114.148438 162.15625 133.511719 C 151.707031 151.667969 156.851562 174.539062 173.402344 186.570312 L 165.929688 199.539062 L 163.097656 197.902344 C 162.527344 197.5625 161.785156 197.761719 161.460938 198.339844 L 136.046875 242.480469 C 135.710938 243.050781 135.90625 243.792969 136.472656 244.121094 L 149.480469 251.648438 C 150.046875 251.972656 150.789062 251.777344 151.125 251.203125 L 176.539062 207.066406 C 176.863281 206.488281 176.667969 205.753906 176.097656 205.417969 L 173.265625 203.777344 L 178.917969 193.96875 L 180.726562 190.808594 C 199.410156 199.167969 221.75 192.195312 232.195312 174.050781 C 243.359375 154.664062 236.734375 129.878906 217.390625 118.675781 " fill-opacity="1" fill-rule="nonzero"/></g><path fill="#8c52ff" d="M 203.914062 126.027344 C 188.953125 128.839844 176.546875 138.289062 169.585938 151.042969 C 171.070312 137.503906 182.011719 126.53125 196.050781 125.507812 C 198.75 125.3125 201.390625 125.503906 203.914062 126.027344 " fill-opacity="1" fill-rule="nonzero"/><g fill="#8c52ff" fill-opacity="1"><g transform="translate(100.224022, 280.900558)"><g><path d="M 1.328125 -18.234375 L 7.84375 -18.234375 C 9.59375 -18.234375 11.019531 -17.765625 12.125 -16.828125 C 13.226562 -15.890625 13.78125 -14.550781 13.78125 -12.8125 C 13.78125 -11.46875 13.445312 -10.34375 12.78125 -9.4375 C 12.113281 -8.539062 11.203125 -7.90625 10.046875 -7.53125 L 16.328125 0 L 11.046875 0 L 5.484375 -7.203125 L 5.484375 0 L 1.328125 0 Z M 5.484375 -10.140625 L 5.96875 -10.140625 C 6.351562 -10.140625 6.675781 -10.144531 6.9375 -10.15625 C 7.195312 -10.175781 7.492188 -10.226562 7.828125 -10.3125 C 8.171875 -10.40625 8.445312 -10.53125 8.65625 -10.6875 C 8.863281 -10.851562 9.039062 -11.085938 9.1875 -11.390625 C 9.332031 -11.703125 9.40625 -12.078125 9.40625 -12.515625 C 9.40625 -12.960938 9.332031 -13.34375 9.1875 -13.65625 C 9.039062 -13.96875 8.863281 -14.203125 8.65625 -14.359375 C 8.445312 -14.523438 8.171875 -14.648438 7.828125 -14.734375 C 7.492188 -14.828125 7.195312 -14.878906 6.9375 -14.890625 C 6.675781 -14.898438 6.351562 -14.90625 5.96875 -14.90625 L 5.484375 -14.90625 Z M 5.484375 -10.140625 "/></g></g></g><g fill="#8c52ff" fill-opacity="1"><g transform="translate(118.903955, 280.900558)"><g><path d="M 11.75 -18.234375 L 11.75 -14.578125 L 5.484375 -14.578125 L 5.484375 -10.953125 L 11.484375 -10.953125 L 11.484375 -7.3125 L 5.484375 -7.3125 L 5.484375 -3.640625 L 11.75 -3.640625 L 11.75 0 L 1.328125 0 L 1.328125 -18.234375 Z M 11.75 -18.234375 "/></g></g></g><g fill="#8c52ff" fill-opacity="1"><g transform="translate(134.581255, 280.900558)"><g><path d="M 8.046875 -18.5625 C 9.023438 -18.5625 9.984375 -18.414062 10.921875 -18.125 C 11.867188 -17.84375 12.570312 -17.5625 13.03125 -17.28125 L 13.703125 -16.828125 L 12.015625 -13.515625 C 11.878906 -13.609375 11.691406 -13.722656 11.453125 -13.859375 C 11.222656 -14.003906 10.785156 -14.191406 10.140625 -14.421875 C 9.492188 -14.660156 8.890625 -14.78125 8.328125 -14.78125 C 7.640625 -14.78125 7.109375 -14.628906 6.734375 -14.328125 C 6.359375 -14.035156 6.171875 -13.640625 6.171875 -13.140625 C 6.171875 -12.890625 6.253906 -12.65625 6.421875 -12.4375 C 6.597656 -12.226562 6.898438 -12.003906 7.328125 -11.765625 C 7.753906 -11.523438 8.128906 -11.328125 8.453125 -11.171875 C 8.785156 -11.023438 9.289062 -10.804688 9.96875 -10.515625 C 11.144531 -10.015625 12.148438 -9.332031 12.984375 -8.46875 C 13.816406 -7.613281 14.234375 -6.640625 14.234375 -5.546875 C 14.234375 -4.503906 14.046875 -3.59375 13.671875 -2.8125 C 13.296875 -2.03125 12.78125 -1.414062 12.125 -0.96875 C 11.46875 -0.53125 10.738281 -0.207031 9.9375 0 C 9.144531 0.21875 8.285156 0.328125 7.359375 0.328125 C 6.566406 0.328125 5.785156 0.242188 5.015625 0.078125 C 4.242188 -0.078125 3.597656 -0.273438 3.078125 -0.515625 C 2.566406 -0.765625 2.101562 -1.003906 1.6875 -1.234375 C 1.28125 -1.472656 0.984375 -1.671875 0.796875 -1.828125 L 0.515625 -2.078125 L 2.578125 -5.5625 C 2.753906 -5.414062 3 -5.226562 3.3125 -5 C 3.625 -4.769531 4.171875 -4.460938 4.953125 -4.078125 C 5.742188 -3.703125 6.441406 -3.515625 7.046875 -3.515625 C 8.796875 -3.515625 9.671875 -4.109375 9.671875 -5.296875 C 9.671875 -5.546875 9.609375 -5.773438 9.484375 -5.984375 C 9.359375 -6.203125 9.132812 -6.414062 8.8125 -6.625 C 8.5 -6.84375 8.222656 -7.015625 7.984375 -7.140625 C 7.742188 -7.265625 7.347656 -7.457031 6.796875 -7.71875 C 6.242188 -7.976562 5.832031 -8.175781 5.5625 -8.3125 C 4.457031 -8.851562 3.601562 -9.53125 3 -10.34375 C 2.394531 -11.164062 2.09375 -12.046875 2.09375 -12.984375 C 2.09375 -14.617188 2.695312 -15.957031 3.90625 -17 C 5.113281 -18.039062 6.492188 -18.5625 8.046875 -18.5625 Z M 8.046875 -18.5625 "/></g></g></g><g fill="#8c52ff" fill-opacity="1"><g transform="translate(152.289744, 280.900558)"><g><path d="M 0.515625 -9.125 C 0.515625 -11.757812 1.410156 -13.988281 3.203125 -15.8125 C 5.003906 -17.644531 7.171875 -18.5625 9.703125 -18.5625 C 12.242188 -18.5625 14.40625 -17.648438 16.1875 -15.828125 C 17.976562 -14.015625 18.875 -11.78125 18.875 -9.125 C 18.875 -6.457031 17.992188 -4.210938 16.234375 -2.390625 C 14.484375 -0.578125 12.304688 0.328125 9.703125 0.328125 C 7.035156 0.328125 4.835938 -0.570312 3.109375 -2.375 C 1.378906 -4.175781 0.515625 -6.425781 0.515625 -9.125 Z M 5 -9.125 C 5 -8.164062 5.144531 -7.289062 5.4375 -6.5 C 5.726562 -5.71875 6.242188 -5.050781 6.984375 -4.5 C 7.722656 -3.957031 8.628906 -3.6875 9.703125 -3.6875 C 11.242188 -3.6875 12.410156 -4.21875 13.203125 -5.28125 C 13.992188 -6.34375 14.390625 -7.625 14.390625 -9.125 C 14.390625 -10.613281 13.984375 -11.890625 13.171875 -12.953125 C 12.367188 -14.023438 11.210938 -14.5625 9.703125 -14.5625 C 8.203125 -14.5625 7.039062 -14.023438 6.21875 -12.953125 C 5.40625 -11.890625 5 -10.613281 5 -9.125 Z M 5 -9.125 "/></g></g></g><g fill="#8c52ff" fill-opacity="1"><g transform="translate(174.524257, 280.900558)"><g><path d="M 15.328125 -18.234375 L 15.328125 -6.46875 C 15.328125 -4.226562 14.722656 -2.535156 13.515625 -1.390625 C 12.304688 -0.242188 10.539062 0.328125 8.21875 0.328125 C 5.894531 0.328125 4.128906 -0.242188 2.921875 -1.390625 C 1.710938 -2.535156 1.109375 -4.226562 1.109375 -6.46875 L 1.109375 -18.234375 L 5.265625 -18.234375 L 5.265625 -7.6875 C 5.265625 -6.21875 5.492188 -5.191406 5.953125 -4.609375 C 6.421875 -4.035156 7.175781 -3.75 8.21875 -3.75 C 9.257812 -3.75 10.007812 -4.035156 10.46875 -4.609375 C 10.9375 -5.191406 11.171875 -6.21875 11.171875 -7.6875 L 11.171875 -18.234375 Z M 15.328125 -18.234375 "/></g></g></g><g fill="#8c52ff" fill-opacity="1"><g transform="translate(193.822376, 280.900558)"><g><path d="M 1.328125 -18.234375 L 7.84375 -18.234375 C 9.59375 -18.234375 11.019531 -17.765625 12.125 -16.828125 C 13.226562 -15.890625 13.78125 -14.550781 13.78125 -12.8125 C 13.78125 -11.46875 13.445312 -10.34375 12.78125 -9.4375 C 12.113281 -8.539062 11.203125 -7.90625 10.046875 -7.53125 L 16.328125 0 L 11.046875 0 L 5.484375 -7.203125 L 5.484375 0 L 1.328125 0 Z M 5.484375 -10.140625 L 5.96875 -10.140625 C 6.351562 -10.140625 6.675781 -10.144531 6.9375 -10.15625 C 7.195312 -10.175781 7.492188 -10.226562 7.828125 -10.3125 C 8.171875 -10.40625 8.445312 -10.53125 8.65625 -10.6875 C 8.863281 -10.851562 9.039062 -11.085938 9.1875 -11.390625 C 9.332031 -11.703125 9.40625 -12.078125 9.40625 -12.515625 C 9.40625 -12.960938 9.332031 -13.34375 9.1875 -13.65625 C 9.039062 -13.96875 8.863281 -14.203125 8.65625 -14.359375 C 8.445312 -14.523438 8.171875 -14.648438 7.828125 -14.734375 C 7.492188 -14.828125 7.195312 -14.878906 6.9375 -14.890625 C 6.675781 -14.898438 6.351562 -14.90625 5.96875 -14.90625 L 5.484375 -14.90625 Z M 5.484375 -10.140625 "/></g></g></g><g fill="#8c52ff" fill-opacity="1"><g transform="translate(212.502308, 280.900558)"><g><path d="M 11.03125 -3.75 C 11.65625 -3.75 12.265625 -3.84375 12.859375 -4.03125 C 13.460938 -4.226562 13.90625 -4.414062 14.1875 -4.59375 L 14.609375 -4.875 L 16.375 -1.34375 C 16.3125 -1.300781 16.226562 -1.242188 16.125 -1.171875 C 16.019531 -1.097656 15.78125 -0.960938 15.40625 -0.765625 C 15.03125 -0.566406 14.628906 -0.390625 14.203125 -0.234375 C 13.773438 -0.0859375 13.210938 0.0390625 12.515625 0.15625 C 11.828125 0.269531 11.117188 0.328125 10.390625 0.328125 C 8.691406 0.328125 7.082031 -0.0859375 5.5625 -0.921875 C 4.050781 -1.753906 2.832031 -2.898438 1.90625 -4.359375 C 0.976562 -5.816406 0.515625 -7.390625 0.515625 -9.078125 C 0.515625 -10.359375 0.785156 -11.585938 1.328125 -12.765625 C 1.867188 -13.941406 2.59375 -14.953125 3.5 -15.796875 C 4.40625 -16.640625 5.460938 -17.3125 6.671875 -17.8125 C 7.878906 -18.3125 9.117188 -18.5625 10.390625 -18.5625 C 11.566406 -18.5625 12.648438 -18.421875 13.640625 -18.140625 C 14.640625 -17.859375 15.34375 -17.578125 15.75 -17.296875 L 16.375 -16.875 L 14.609375 -13.34375 C 14.503906 -13.4375 14.347656 -13.546875 14.140625 -13.671875 C 13.929688 -13.796875 13.515625 -13.957031 12.890625 -14.15625 C 12.273438 -14.363281 11.65625 -14.46875 11.03125 -14.46875 C 10.019531 -14.46875 9.117188 -14.304688 8.328125 -13.984375 C 7.535156 -13.660156 6.90625 -13.234375 6.4375 -12.703125 C 5.976562 -12.171875 5.625 -11.597656 5.375 -10.984375 C 5.132812 -10.378906 5.015625 -9.757812 5.015625 -9.125 C 5.015625 -7.738281 5.53125 -6.492188 6.5625 -5.390625 C 7.601562 -4.296875 9.09375 -3.75 11.03125 -3.75 Z M 11.03125 -3.75 "/></g></g></g><g fill="#8c52ff" fill-opacity="1"><g transform="translate(231.999137, 280.900558)"><g><path d="M 5.484375 -18.234375 L 5.484375 0 L 1.328125 0 L 1.328125 -18.234375 Z M 5.484375 -18.234375 "/></g></g></g><g fill="#8c52ff" fill-opacity="1"><g transform="translate(241.671179, 280.900558)"><g><path d="M 11.859375 -18.234375 L 11.859375 -14.578125 L 5.484375 -14.578125 L 5.484375 -10.953125 L 11.375 -10.953125 L 11.375 -7.3125 L 5.484375 -7.3125 L 5.484375 0 L 1.328125 0 L 1.328125 -18.234375 Z M 11.859375 -18.234375 "/></g></g></g><g fill="#8c52ff" fill-opacity="1"><g transform="translate(257.061467, 280.900558)"><g><path d="M -0.65625 -18.234375 L 4.328125 -18.234375 L 8.125 -12.390625 L 11.9375 -18.234375 L 16.921875 -18.234375 L 10.203125 -8.171875 L 10.203125 0 L 6.046875 0 L 6.046875 -8.171875 Z M -0.65625 -18.234375 "/></g></g></g></svg>